<?xml version="1.0" encoding="UTF-8" standalone="no"?>
<!-- Created with Inkscape (http://www.inkscape.org/) -->

<svg
   width="210mm"
   height="297mm"
   viewBox="0 0 210 297"
   version="1.1"
   id="svg360"
   inkscape:version="1.2.2 (b0a8486541, 2022-12-01)"
   sodipodi:docname="tiletransform.svg"
   xmlns:inkscape="http://www.inkscape.org/namespaces/inkscape"
   xmlns:sodipodi="http://sodipodi.sourceforge.net/DTD/sodipodi-0.dtd"
   xmlns="http://www.w3.org/2000/svg"
   xmlns:svg="http://www.w3.org/2000/svg">
  <sodipodi:namedview
     id="namedview362"
     pagecolor="#ffffff"
     bordercolor="#999999"
     borderopacity="1"
     inkscape:showpageshadow="0"
     inkscape:pageopacity="0"
     inkscape:pagecheckerboard="0"
     inkscape:deskcolor="#d1d1d1"
     inkscape:document-units="mm"
     showgrid="false"
     inkscape:zoom="0.54787156"
     inkscape:cx="127.76717"
     inkscape:cy="543.01048"
     inkscape:window-width="1920"
     inkscape:window-height="1054"
     inkscape:window-x="0"
     inkscape:window-y="0"
     inkscape:window-maximized="1"
     inkscape:current-layer="g2316" />
  <defs
     id="defs357" />
  <g
     inkscape:label="Layer 1"
     inkscape:groupmode="layer"
     id="layer1">
    <g
       id="g2324">
      <rect
         style="fill:none;stroke-width:0.761;stroke-linecap:round;stroke-miterlimit:3.1;stroke:#000000;stroke-opacity:1;stroke-dasharray:none;opacity:0.46352766"
         id="rect533"
         width="78.766823"
         height="78.766823"
         x="34.911911"
         y="27.594311" />
      <circle
         style="fill:#ffffff;stroke:#000000;stroke-width:0.761;stroke-linecap:round;stroke-miterlimit:3.1;stroke-dasharray:none;stroke-opacity:1;fill-opacity:1"
         id="path1141"
         cx="34.911911"
         cy="27.594311"
         r="2.8384035" />
      <circle
         style="fill:#ffffff;stroke:#000000;stroke-width:0.761;stroke-linecap:round;stroke-miterlimit:3.1;stroke-dasharray:none;stroke-opacity:1;fill-opacity:1"
         id="path1141-2"
         cx="74.295319"
         cy="66.977722"
         r="2.8384035" />
      <circle
         style="fill:#ffffff;stroke:#000000;stroke-width:0.761;stroke-linecap:round;stroke-miterlimit:3.1;stroke-dasharray:none;stroke-opacity:1;fill-opacity:1"
         id="path1141-3"
         cx="113.67873"
         cy="27.706795"
         r="2.8384035" />
      <circle
         style="fill:#ffffff;stroke:#000000;stroke-width:0.761;stroke-linecap:round;stroke-miterlimit:3.1;stroke-dasharray:none;stroke-opacity:1;fill-opacity:1"
         id="path1141-3-6"
         cx="113.67873"
         cy="106.41951"
         r="2.8384035" />
      <circle
         style="fill:#ffffff;stroke:#000000;stroke-width:0.761;stroke-linecap:round;stroke-miterlimit:3.1;stroke-dasharray:none;stroke-opacity:1;fill-opacity:1"
         id="path1141-3-7"
         cx="34.911911"
         cy="106.35841"
         r="2.8384035" />
    </g>
    <g
       id="g2316"
       transform="translate(-0.12362696,38.142107)">
      <circle
         style="fill:#ffffff;stroke:#000000;stroke-width:0.761;stroke-linecap:round;stroke-miterlimit:3.1;stroke-dasharray:none;stroke-opacity:1;fill-opacity:1"
         id="path1141-2-7"
         cx="130.48271"
         cy="175.5714"
         r="2.8384035" />
      <path
         style="opacity:0.466295;fill:none;stroke:#000000;stroke-width:0.761;stroke-linecap:round;stroke-miterlimit:3.1"
         d="M 103.84979,146.25544 180.1083,120.96333 158.1606,230.24791 80.856753,204.1197 Z"
         id="path1444" />
      <path
         style="opacity:1;fill:#ffffff;stroke:#000000;stroke-width:0.761;stroke-linecap:round;stroke-miterlimit:3.1;fill-opacity:1"
         d="m 106.68819,146.25544 c 0,1.56761 -1.27079,2.83841 -2.8384,2.83841 -1.56761,0 -2.83841,-1.2708 -2.83841,-2.83841 0,-1.5676 1.2708,-2.8384 2.83841,-2.8384 1.5676,0 2.8384,1.2708 2.8384,2.8384 z"
         id="path1442" />
      <path
         style="opacity:1;fill:#ffffff;stroke:#000000;stroke-width:0.761;stroke-linecap:round;stroke-miterlimit:3.1;fill-opacity:1"
         d="m 182.94669,121.07582 c 0,1.56761 -1.27079,2.8384 -2.8384,2.8384 -1.56761,1e-5 -2.83841,-1.27079 -2.83841,-2.8384 0,-1.56761 1.2708,-2.8384 2.83841,-2.8384 1.56761,0 2.8384,1.2708 2.8384,2.8384 z"
         id="path1440" />
      <path
         style="opacity:1;fill:#ffffff;stroke:#000000;stroke-width:0.761;stroke-linecap:round;stroke-miterlimit:3.1;fill-opacity:1"
         d="m 160.99199,230.2479 c 0,1.56761 -1.27079,2.8384 -2.8384,2.8384 -1.5676,1e-5 -2.8384,-1.27079 -2.83841,-2.8384 1e-5,-1.56761 1.27081,-2.8384 2.83841,-2.8384 1.56761,0 2.8384,1.2708 2.8384,2.8384 z"
         id="path1438" />
      <path
         style="opacity:1;fill:#ffffff;stroke:#000000;stroke-width:0.761;stroke-linecap:round;stroke-miterlimit:3.1;fill-opacity:1"
         d="m 83.695156,204.11669 c 4e-6,1.56761 -1.270794,2.83841 -2.838403,2.83841 -1.56761,0 -2.838408,-1.2708 -2.838404,-2.83841 2e-6,-1.56761 1.270798,-2.8384 2.838404,-2.8384 1.567605,0 2.838401,1.27079 2.838403,2.8384 z"
         id="path1141-3-7-1" />
    </g>
  </g>
</svg>
