<?xml version="1.0" encoding="UTF-8" standalone="no"?>
<!-- Created with Inkscape (http://www.inkscape.org/) -->

<svg
   width="203.39011mm"
   height="107.04079mm"
   viewBox="0 0 203.39011 107.04079"
   version="1.1"
   id="svg1"
   xmlns="http://www.w3.org/2000/svg"
   xmlns:svg="http://www.w3.org/2000/svg">
  <defs
     id="defs1" />
  <g
     id="layer1">
    <g
       id="g2">
      <g
         id="g4">
        <path
           id="path1-9-4"
           style="fill:#ff0000;stroke-width:1.8;stroke-linecap:round"
           transform="matrix(-0.30989015,-0.53674549,0.53815961,-0.31070659,143.33368,108.12865)"
           d="M 109.16576,75.490448 87.720711,112.63437 H 44.830605 L 23.385551,75.490448 44.830605,38.346526 h 42.890106 z" />
        <path
           id="path2-6-1-1-3-3"
           style="stroke-width:1.8;stroke-linecap:round"
           transform="matrix(0.61633291,0,0,-0.61633291,98.680198,202.61678)"
           d="M 126.59522,211.70449 H 83.404778 L 105,174.30047 Z" />
        <path
           id="path2-6-1-1-3-3-6"
           style="stroke-width:1.8;stroke-linecap:round"
           transform="matrix(0.61633291,0,0,-0.61633291,72.088443,156.55852)"
           d="M 126.59522,211.70449 H 83.404778 L 105,174.30047 Z" />
        <path
           id="path2-6-1-1-3-3-6-4"
           style="stroke-width:1.8;stroke-linecap:round"
           transform="matrix(0.61633291,0,0,-0.61633291,125.35074,156.51303)"
           d="M 126.59522,211.70449 H 83.404778 L 105,174.30047 Z" />
      </g>
      <path
         id="path2-6-1-1-3-1"
         style="fill:none;stroke:#000000;stroke-width:0.0541889;stroke-linecap:round"
         transform="matrix(1.8453953,0,0,-1.8453953,-30.314728,416.74293)"
         d="M 126.59522,211.70449 H 83.404778 L 105,174.30047 Z" />
    </g>
    <g
       id="g3">
      <path
         id="path1"
         style="fill:none;stroke:#000000;stroke-width:0.208789;stroke-linecap:round"
         transform="matrix(-0.71842703,-1.2443521,1.2443521,-0.71842703,15.477554,190.22503)"
         d="M 109.16576,75.490448 87.720711,112.63437 H 44.830605 L 23.385551,75.490448 44.830605,38.346526 h 42.890106 z" />
      <g
         id="g5">
        <path
           id="path1-9"
           style="fill:#ff0000;stroke-width:1.8;stroke-linecap:round"
           transform="matrix(-0.3582696,-0.62054115,0.62217605,-0.3592135,38.576234,121.76436)"
           d="M 109.16576,75.490448 87.720711,112.63437 H 44.830605 L 23.385551,75.490448 44.830605,38.346526 h 42.890106 z" />
        <path
           id="path2-6"
           style="stroke-width:1.8;stroke-linecap:round"
           transform="matrix(-0.35671561,-0.61784956,0.61784956,-0.35671561,6.9704057,153.88511)"
           d="M 126.59522,211.70449 H 83.404778 L 105,174.30047 Z" />
        <path
           id="path2"
           style="stroke-width:1.8;stroke-linecap:round"
           transform="matrix(-0.35671561,-0.61784956,0.61784956,-0.35671561,22.377112,180.5703)"
           d="M 126.59522,211.70449 H 83.404778 L 105,174.30047 Z" />
        <path
           id="path2-6-1"
           style="stroke-width:1.8;stroke-linecap:round"
           transform="matrix(-0.35671561,-0.61784956,-0.61784956,0.35671561,176.13322,56.2189)"
           d="M 126.59522,211.70449 H 83.404778 L 105,174.30047 Z" />
        <path
           id="path2-7"
           style="stroke-width:1.8;stroke-linecap:round"
           transform="matrix(-0.35671561,-0.61784956,-0.61784956,0.35671561,191.53993,82.904106)"
           d="M 126.59522,211.70449 H 83.404778 L 105,174.30047 Z" />
        <path
           id="path2-6-1-1"
           style="stroke-width:1.8;stroke-linecap:round"
           transform="matrix(0.35671561,-0.61784956,-0.61784956,-0.35671561,116.62965,153.88511)"
           d="M 126.59522,211.70449 H 83.404778 L 105,174.30047 Z" />
        <path
           id="path2-7-4"
           style="stroke-width:1.8;stroke-linecap:round"
           transform="matrix(0.35671561,-0.61784956,-0.61784956,-0.35671561,101.22294,180.5703)"
           d="M 126.59522,211.70449 H 83.404778 L 105,174.30047 Z" />
        <path
           id="path2-6-1-1-8"
           style="stroke-width:1.8;stroke-linecap:round"
           transform="matrix(0.35671561,-0.61784956,0.61784956,0.35671561,-52.533166,56.218901)"
           d="M 126.59522,211.70449 H 83.404778 L 105,174.30047 Z" />
        <path
           id="path2-7-4-0"
           style="stroke-width:1.8;stroke-linecap:round"
           transform="matrix(0.35671561,-0.61784956,0.61784956,0.35671561,-67.939872,82.904106)"
           d="M 126.59522,211.70449 H 83.404778 L 105,174.30047 Z" />
        <path
           id="path2-6-1-1-3"
           style="stroke-width:1.8;stroke-linecap:round"
           transform="matrix(0.71343122,0,0,-0.71343122,2.2964547,151.1866)"
           d="M 126.59522,211.70449 H 83.404778 L 105,174.30047 Z" />
        <path
           id="path2-7-4-2"
           style="stroke-width:1.8;stroke-linecap:round"
           transform="matrix(0.71343122,0,0,-0.71343122,-28.516956,151.1866)"
           d="M 126.59522,211.70449 H 83.404778 L 105,174.30047 Z" />
        <path
           id="path2-6-1-1-1"
           style="stroke-width:1.8;stroke-linecap:round"
           transform="matrix(0.71343122,0,0,0.71343122,2.2964547,-44.145795)"
           d="M 126.59522,211.70449 H 83.404778 L 105,174.30047 Z" />
        <path
           id="path2-7-4-3"
           style="stroke-width:1.8;stroke-linecap:round"
           transform="matrix(0.71343122,0,0,0.71343122,-28.516956,-44.145795)"
           d="M 126.59522,211.70449 H 83.404778 L 105,174.30047 Z" />
      </g>
    </g>
  </g>
</svg>
