<?xml version="1.0" encoding="UTF-8" standalone="no"?>
<!-- Generator: Adobe Illustrator 16.0.0, SVG Export Plug-In . SVG Version: 6.00 Build 0)  -->

<svg
   version="1.1"
   id="Capa_1"
   x="0px"
   y="0px"
   width="545.027px"
   height="545.027px"
   viewBox="0 0 545.027 545.027"
   style="enable-background:new 0 0 545.027 545.027;"
   xml:space="preserve"
   sodipodi:docname="open.svg"
   inkscape:version="1.2.2 (b0a8486541, 2022-12-01)"
   xmlns:inkscape="http://www.inkscape.org/namespaces/inkscape"
   xmlns:sodipodi="http://sodipodi.sourceforge.net/DTD/sodipodi-0.dtd"
   xmlns="http://www.w3.org/2000/svg"
   xmlns:svg="http://www.w3.org/2000/svg"><defs
   id="defs15370" /><sodipodi:namedview
   id="namedview15368"
   pagecolor="#ffffff"
   bordercolor="#999999"
   borderopacity="1"
   inkscape:showpageshadow="0"
   inkscape:pageopacity="0"
   inkscape:pagecheckerboard="0"
   inkscape:deskcolor="#d1d1d1"
   showgrid="false"
   inkscape:zoom="0.75760309"
   inkscape:cx="97.676475"
   inkscape:cy="330.64807"
   inkscape:window-width="1920"
   inkscape:window-height="1054"
   inkscape:window-x="0"
   inkscape:window-y="0"
   inkscape:window-maximized="1"
   inkscape:current-layer="g15335" />
<g
   id="g15335">
	<path
   id="path15333"
   style="stroke-width:1.13482"
   d="M 63.953125 53.515625 C 46.442161 53.515625 31.404771 59.798351 18.841797 72.361328 C 6.2798218 84.921306 0 99.959741 0 117.4707 L 0 169.03906 L 0 207.03906 L 0 406.66602 C 0 429.21312 6.2798218 448.57826 18.841797 464.75195 C 31.404771 480.93338 46.442161 489.02734 63.953125 489.02734 L 374.58984 489.02734 C 387.33782 489.02734 400.65957 484.79494 414.56055 476.33398 C 428.45551 467.88205 439.48885 457.15427 447.67383 444.16406 L 531.90039 310.69727 C 540.65437 296.48363 545.02734 281.78143 545.02734 266.57617 C 545.03134 257.74948 543.60217 249.42271 540.74219 241.56445 C 536.56319 230.2909 530.17412 221.65036 521.61914 215.6543 C 513.05316 209.64662 503.63245 206.64453 493.35547 206.64453 L 438.53711 206.64453 L 438.53711 197.03906 L 438.53711 190.55859 C 438.53711 173.04763 432.25334 158.01023 419.69336 145.44727 C 407.12738 132.88529 392.08899 126.60547 374.58203 126.60547 L 219.26758 126.60547 L 219.26758 117.46875 C 219.26758 99.957788 212.98476 84.920306 200.42578 72.361328 C 187.8618 59.799351 172.82543 53.515625 155.31445 53.515625 L 63.953125 53.515625 z M 63.953125 90.066406 L 155.31836 90.066406 C 162.93334 90.066406 169.40244 92.730552 174.73242 98.060547 C 180.05942 103.39053 182.72656 109.86363 182.72656 117.47461 L 182.72656 135.74805 C 182.72656 143.36403 185.39372 149.83511 190.7207 155.16211 C 196.0477 160.48909 202.51883 163.15625 210.13281 163.15625 L 374.58398 163.15625 C 382.19498 163.15625 388.67297 165.82144 394.00195 171.14844 C 399.32595 176.47442 401.99219 182.94752 401.99219 190.5625 L 401.99219 197.03906 L 401.99219 206.65039 L 182.72461 206.65039 C 169.78363 206.65039 156.45593 210.8808 142.75195 219.33789 C 129.04599 227.79499 118.00879 238.51769 109.63281 251.51562 L 36.546875 367.33008 L 36.546875 207.03906 L 36.546875 169.03906 L 36.546875 117.47461 C 36.546875 109.86363 39.209074 103.39053 44.539062 98.060547 C 49.865052 92.733552 56.338141 90.066406 63.953125 90.066406 z M 182.72461 253.70312 L 493.35547 253.70312 C 503.44345 253.70312 508.48437 257.99344 508.48438 266.57031 C 508.48536 270.74927 506.7787 275.52915 503.3457 280.92383 L 419.40625 414.38867 C 414.65325 421.98549 407.89475 428.48153 399.13477 433.86719 C 390.38077 439.26184 382.19401 441.95898 374.58203 441.95898 L 63.953125 441.95898 C 53.865145 441.95898 48.822266 437.66543 48.822266 429.08984 C 48.822266 425.16716 50.535897 420.2648 53.962891 414.37305 L 137.90039 280.91406 C 142.84939 273.31207 149.64952 266.88235 158.3125 261.61133 C 166.97048 256.34029 175.10963 253.70312 182.72461 253.70312 z " />
</g>
<g
   id="g15337">
</g>
<g
   id="g15339">
</g>
<g
   id="g15341">
</g>
<g
   id="g15343">
</g>
<g
   id="g15345">
</g>
<g
   id="g15347">
</g>
<g
   id="g15349">
</g>
<g
   id="g15351">
</g>
<g
   id="g15353">
</g>
<g
   id="g15355">
</g>
<g
   id="g15357">
</g>
<g
   id="g15359">
</g>
<g
   id="g15361">
</g>
<g
   id="g15363">
</g>
<g
   id="g15365">
</g>
</svg>
