<svg viewBox="-1 -1 2.01 2.01" version="1.1" id="svg5" sodipodi:docname="square.svg" inkscape:version="1.2.2 (b0a8486541, 2022-12-01)" xmlns:inkscape="http://www.inkscape.org/namespaces/inkscape" xmlns:sodipodi="http://sodipodi.sourceforge.net/DTD/sodipodi-0.dtd" xmlns="http://www.w3.org/2000/svg" xmlns:svg="http://www.w3.org/2000/svg"><path d="M -0.06599875365471071,-0.06599874993601229 L 0.06599680048266157,-0.06599874993601229 L 0.06599646221882337,0.06599647618794056 L -0.06599875365441224,0.0659968042016616 Z"></path>
<path d="M -0.25754254967460205,-0.257542549674602 L -0.06599875365471068,-0.06599874993601226 L -0.06599875365441221,0.0659968042016616 L -0.25754254967420404,0.2575400396742032 Z"></path>
<path d="M 0.2575400396738176,-0.257542549674602 L 0.06599680048266157,-0.06599874993601229 L -0.06599875365471071,-0.06599874993601229 L -0.25754254967460205,-0.257542549674602 Z"></path>
<path d="M 0.257540680325398,-0.257542549674602 L 0.2575400203253615,0.25754004032536154 L 0.06599646221882337,0.06599647618794056 L 0.06599680048266157,-0.06599874993601229 Z"></path>
<path d="M 0.25753937967421564,0.2575393996741783 L -0.2575425496738176,0.25754068032618244 L -0.06599875365441221,0.0659968042016616 L 0.0659964622188234,0.06599647618794056 Z"></path>
<path d="M -0.7270431169461276,-0.2575428972523297 L -0.5354991982093278,-0.06599897851552998 L -0.5354994436432352,0.06599617709519544 L -0.7270431169466327,0.25753945757597424 Z"></path>
<path d="M -1.005,-1.005 L -0.7270431169461274,-0.2575428972523296 L -0.7270431169466326,0.2575394575759742 L -1.0050000000042656,1.0049934296718586 Z"></path>
<path d="M -0.25754347934920385,-0.2575434793492039 L -0.5354991982093278,-0.06599897851552998 L -0.7270431169461276,-0.2575428972523297 L -1.005,-1.005 Z"></path>
<path d="M -0.2575425496746019,-0.25754254967460194 L -0.2575425496738174,0.25754068032618244 L -0.5354994436432352,0.06599617709519544 L -0.5354991982093278,-0.06599897851552998 Z"></path>
<path d="M -0.25754347934957567,0.2575400396718583 L -1.0050000000031094,1.0049949999968908 L -0.7270431169466326,0.2575394575759742 L -0.5354994436432352,0.06599617709519544 Z"></path>
<path d="M 0.2575390614465107,-0.7270431169456952 L 0.06599594497226298,-0.5354991982088956 L -0.06599921063928942,-0.5354994436430041 L -0.2575432933825901,-0.7270431169454036 Z"></path>
<path d="M 1.0049950000000003,-1.005 L 0.25753906144651056,-0.7270431169456952 L -0.25754329338259,-0.7270431169454035 L -1.0049984296749679,-1.0050000000011563 Z"></path>
<path d="M 0.25754160999610626,-0.2575434793492039 L 0.06599594497226298,-0.5354991982088956 L 0.2575390614465107,-0.7270431169456952 L 1.0049950000000003,-1.005 Z"></path>
<path d="M 0.2575406803253982,-0.25754254967460194 L -0.25754254967460205,-0.25754254967460194 L -0.06599921063928942,-0.5354994436430041 L 0.06599594497226298,-0.5354991982088956 Z"></path>
<path d="M -0.25754190902417173,-0.2575434793503602 L -1.0050000000000001,-1.005 L -0.25754329338259,-0.7270431169454035 L -0.06599921063928942,-0.5354994436430041 Z"></path>
<path d="M 0.7270407287486521,-0.25754255141295224 L 0.7270407287486521,0.25754067858704777 L 0.5354970404875233,0.0659963463651814 L 0.5354969716224289,-0.06599886719596411 Z"></path>
<path d="M 1.0049975,-1.005 L 0.7270407287486521,-0.2575425514129521 L 0.5354969716224289,-0.06599886719596408 L 0.2575416100007824,-0.25754254967539303 Z"></path>
<path d="M 1.0049975,1.004995 L 0.7270407287486521,0.25754067858704777 L 0.7270407287486521,-0.25754255141295224 L 1.0049975,-1.005 Z"></path>
<path d="M 1.0049975,1.0049975 L 0.2575400203253615,0.25754004032536143 L 0.5354970404875233,0.0659963463651814 L 0.7270407287486521,0.25754067858704777 Z"></path>
<path d="M 0.2575409500015667,0.25753939967378603 L 0.25754068032539806,-0.257542549674602 L 0.5354969716224289,-0.06599886719596408 L 0.5354970404875233,0.06599634636518148 Z"></path>
<path d="M 0.2575389387282274,0.7270396269780245 L -0.25754365061939544,0.7270402676304017 L -0.06599932079397017,0.5354967485004782 L 0.06599588764217246,0.5354963464971763 Z"></path>
<path d="M 1.0049949999968908,1.0049949999968908 L 0.2575389387282273,0.7270396269780245 L 0.06599588764217243,0.5354963464971763 L 0.25754002032462203,0.25754096999917875 Z"></path>
<path d="M -1.0049975000031095,1.0049974999968905 L -0.25754365061939544,0.7270402676304017 L 0.2575389387282274,0.7270396269780245 L 1.0049949999968908,1.0049949999968908 Z"></path>
<path d="M -1.0050000000000001,1.0049975 L -0.2575425496738174,0.2575406803261824 L -0.06599932079397017,0.5354967485004782 L -0.25754365061939544,0.7270402676304017 Z"></path>
<path d="M -0.25754190902379753,0.2575416099992035 L 0.2575400203253617,0.2575400403253616 L 0.06599588764217243,0.5354963464971763 L -0.06599932079397022,0.5354967485004782 Z"></path></svg>
